<svg xmlns="http://www.w3.org/2000/svg" width="1920" height="1080" viewBox="0 0 1920 1080">
  <defs>
    <linearGradient id="bg" x1="0%" y1="0%" x2="100%" y2="100%">
      <stop offset="0%" stop-color="#0f172a"/>
      <stop offset="50%" stop-color="#1e293b"/>
      <stop offset="100%" stop-color="#0f172a"/>
    </linearGradient>
    <radialGradient id="glow1" cx="20%" cy="30%" r="40%">
      <stop offset="0%" stop-color="#3b82f6" stop-opacity="0.08"/>
      <stop offset="100%" stop-color="#3b82f6" stop-opacity="0"/>
    </radialGradient>
    <radialGradient id="glow2" cx="80%" cy="70%" r="35%">
      <stop offset="0%" stop-color="#8b5cf6" stop-opacity="0.06"/>
      <stop offset="100%" stop-color="#8b5cf6" stop-opacity="0"/>
    </radialGradient>
    <pattern id="grid" width="60" height="60" patternUnits="userSpaceOnUse">
      <path d="M 60 0 L 0 0 0 60" fill="none" stroke="#334155" stroke-width="0.5" opacity="0.3"/>
    </pattern>
    <pattern id="dots" width="30" height="30" patternUnits="userSpaceOnUse">
      <circle cx="15" cy="15" r="0.8" fill="#475569" opacity="0.4"/>
    </pattern>
  </defs>
  <rect width="100%" height="100%" fill="url(#bg)"/>
  <rect width="100%" height="100%" fill="url(#glow1)"/>
  <rect width="100%" height="100%" fill="url(#glow2)"/>
  <rect width="100%" height="100%" fill="url(#grid)"/>
  <rect width="100%" height="100%" fill="url(#dots)"/>
  <!-- Decorative lines -->
  <line x1="0" y1="400" x2="600" y2="350" stroke="#3b82f6" stroke-width="0.5" opacity="0.1"/>
  <line x1="600" y1="350" x2="900" y2="500" stroke="#3b82f6" stroke-width="0.5" opacity="0.1"/>
  <line x1="1920" y1="700" x2="1300" y2="650" stroke="#8b5cf6" stroke-width="0.5" opacity="0.1"/>
  <line x1="1300" y1="650" x2="1000" y2="800" stroke="#8b5cf6" stroke-width="0.5" opacity="0.1"/>
  <!-- Accent nodes -->
  <circle cx="600" cy="350" r="3" fill="#3b82f6" opacity="0.15"/>
  <circle cx="900" cy="500" r="3" fill="#3b82f6" opacity="0.15"/>
  <circle cx="1300" cy="650" r="3" fill="#8b5cf6" opacity="0.15"/>
  <circle cx="1000" cy="800" r="3" fill="#8b5cf6" opacity="0.15"/>
</svg>
